<svg xmlns="http://www.w3.org/2000/svg" viewBox="0 0 1200 760" role="img" aria-labelledby="t d"><title id="t">Shopify parduotuvės struktūros vizualas</title><desc id="d">Švari produkto vitrina, produktų kortelės ir mobilus pirkimo kelias.</desc><defs><linearGradient id="bg" x1="0" y1="0" x2="1" y2="1"><stop stop-color="#eef5ff"/><stop offset="1" stop-color="#dceaff"/></linearGradient><linearGradient id="cta" x1="0" y1="0" x2="1" y2="1"><stop stop-color="#0f86ff"/><stop offset="1" stop-color="#1f55ff"/></linearGradient></defs><rect width="1200" height="760" fill="url(#bg)"/><rect x="74" y="62" width="1052" height="636" rx="30" fill="#fff" stroke="#c9d9ee" stroke-width="4"/><rect x="112" y="98" width="976" height="48" rx="14" fill="#f1f5fb"/><circle cx="140" cy="122" r="7" fill="#bcc9da"/><circle cx="164" cy="122" r="7" fill="#bcc9da"/><circle cx="188" cy="122" r="7" fill="#bcc9da"/><rect x="240" y="108" width="390" height="28" rx="10" fill="#fff"/><rect x="112" y="174" width="420" height="214" rx="24" fill="#07152e"/><rect x="146" y="214" width="230" height="18" rx="9" fill="#55aaff"/><rect x="146" y="254" width="310" height="34" rx="10" fill="#fff" opacity=".94"/><rect x="146" y="307" width="248" height="14" rx="7" fill="#a7bad5"/><rect x="146" y="340" width="142" height="34" rx="10" fill="url(#cta)"/><rect x="558" y="174" width="530" height="214" rx="24" fill="#eaf2ff"/><circle cx="823" cy="281" r="82" fill="#0f86ff" opacity=".16"/><path d="M774 302c34-80 84-112 150-65-19 74-74 106-150 65Z" fill="#0f86ff" opacity=".8"/><g transform="translate(112 418)"><rect width="300" height="232" rx="22" fill="#fff" stroke="#d8e4f2" stroke-width="3"/><rect x="18" y="18" width="264" height="118" rx="17" fill="#edf4ff"/><circle cx="150" cy="77" r="42" fill="#0f86ff" opacity=".18"/><rect x="18" y="156" width="168" height="15" rx="7" fill="#07152e" opacity=".86"/><rect x="18" y="188" width="104" height="12" rx="6" fill="#8fa6c4"/><rect x="218" y="180" width="64" height="34" rx="10" fill="url(#cta)"/></g><g transform="translate(450 418)"><rect width="300" height="232" rx="22" fill="#fff" stroke="#d8e4f2" stroke-width="3"/><rect x="18" y="18" width="264" height="118" rx="17" fill="#edf4ff"/><rect x="95" y="42" width="110" height="70" rx="18" fill="#1f55ff" opacity=".2"/><rect x="18" y="156" width="178" height="15" rx="7" fill="#07152e" opacity=".86"/><rect x="18" y="188" width="116" height="12" rx="6" fill="#8fa6c4"/><rect x="218" y="180" width="64" height="34" rx="10" fill="url(#cta)"/></g><g transform="translate(788 418)"><rect width="300" height="232" rx="22" fill="#fff" stroke="#d8e4f2" stroke-width="3"/><rect x="18" y="18" width="264" height="118" rx="17" fill="#07152e"/><path d="M62 103h176" stroke="#244773" stroke-width="4"/><rect x="58" y="54" width="36" height="50" rx="8" fill="#0f86ff"/><rect x="110" y="38" width="36" height="66" rx="8" fill="#2c6eff"/><rect x="162" y="66" width="36" height="38" rx="8" fill="#55aaff"/><rect x="214" y="28" width="36" height="76" rx="8" fill="#0f86ff"/><rect x="18" y="156" width="184" height="15" rx="7" fill="#07152e" opacity=".86"/><rect x="18" y="188" width="126" height="12" rx="6" fill="#8fa6c4"/><rect x="218" y="180" width="64" height="34" rx="10" fill="url(#cta)"/></g></svg>